<svg xmlns="http://www.w3.org/2000/svg" width="1672" height="941" viewBox="0 0 1672 941" role="img" aria-label="Noisy contours for boat">
  <g data-threshold="220" fill="none" stroke="#0f4d9a" stroke-width="0.9" stroke-opacity="0.38" stroke-linecap="butt" stroke-linejoin="round">
    <path id="boat-220-0" pathLength="1" d="M1614.00 615.00 L1614.00 613.00 L1614.00 612.00 L1614.00 603.00 L1614.00 602.00 L1616.00 596.00"/>
    <path id="boat-220-1" pathLength="1" d="M1594.00 702.00 L1595.00 698.00 L1595.00 697.00 L1597.00 690.00 L1597.00 689.00 L1598.00 683.00 L1598.00 682.00 L1600.00 676.00 L1600.00 675.00 L1601.00 669.00 L1601.00 668.00 L1602.00 663.00 L1603.00 662.00 L1604.00 657.00 L1604.00 656.00 L1605.00 651.00 L1605.00 650.00 L1606.00 646.00 L1606.00 645.00 L1607.00 640.00 L1607.00 639.00 L1608.00 634.00 L1609.00 633.00 L1609.00 628.00 L1610.00 627.00 L1610.00 623.00 L1611.00 622.00 L1614.00 615.00"/>
    <path id="boat-220-2" pathLength="1" d="M1615.00 702.00 L1614.00 702.00 L1613.00 702.00 L1608.00 702.00 L1607.00 702.00 L1603.00 702.00 L1602.00 702.00 L1597.00 702.00 L1596.00 702.00 L1594.00 702.00"/>
    <path id="boat-220-3" pathLength="1" d="M1601.00 717.00 L1601.00 714.00 L1599.00 713.00 L1598.00 712.00 L1597.00 712.00 L1593.00 706.00 L1593.00 705.00 L1594.00 702.00"/>
    <path id="boat-220-4" pathLength="1" d="M1611.00 717.00 L1610.00 719.00 L1609.00 720.00 L1604.00 724.00 L1603.00 724.00 L1598.00 721.00"/>
    <path id="boat-220-5" pathLength="1" d="M1615.00 707.00 L1614.00 707.00 L1613.00 707.00 L1607.00 713.00 L1606.00 714.00 L1611.00 717.00"/>
    <path id="boat-220-6" pathLength="1" d="M1633.00 703.00 L1633.00 700.00 L1633.00 699.00 L1632.00 693.00 L1631.00 692.00 L1630.00 687.00 L1630.00 686.00 L1629.00 680.00 L1629.00 679.00 L1627.00 674.00 L1627.00 673.00 L1626.00 667.00 L1626.00 666.00 L1625.00 661.00 L1624.00 660.00 L1623.00 654.00 L1623.00 653.00 L1622.00 648.00 L1622.00 647.00 L1621.00 641.00 L1620.00 640.00 L1620.00 635.00 L1619.00 634.00 L1618.00 629.00 L1618.00 628.00 L1617.00 625.00 L1616.00 624.00 L1615.00 624.00"/>
    <path id="boat-220-7" pathLength="1" d="M1615.00 702.00 L1615.00 700.00 L1615.00 699.00 L1615.00 693.00 L1615.00 692.00 L1615.00 687.00 L1615.00 686.00 L1615.00 680.00 L1615.00 679.00 L1615.00 674.00 L1615.00 673.00 L1615.00 667.00 L1615.00 666.00 L1615.00 661.00 L1615.00 660.00 L1615.00 654.00 L1615.00 653.00 L1615.00 648.00 L1615.00 647.00 L1615.00 641.00 L1615.00 640.00 L1615.00 635.00 L1615.00 634.00 L1615.00 629.00 L1615.00 628.00 L1615.00 624.00"/>
    <path id="boat-220-8" pathLength="1" d="M1633.00 703.00 L1632.00 703.00 L1631.00 703.00 L1627.00 702.00 L1626.00 702.00 L1618.00 702.00 L1617.00 702.00 L1615.00 702.00"/>
    <path id="boat-220-9" pathLength="1" d="M1616.00 730.00 L1616.00 726.00 L1616.00 725.00 L1615.00 719.00 L1615.00 718.00 L1615.00 716.00"/>
    <path id="boat-220-10" pathLength="1" d="M1629.00 711.00 L1631.00 711.00 L1632.00 710.00 L1635.00 707.00 L1635.00 706.00 L1633.00 703.00"/>
    <path id="boat-220-11" pathLength="1" d="M1629.00 723.00 L1625.00 724.00 L1624.00 723.00 L1621.00 720.00 L1620.00 719.00 L1620.00 716.00"/>
    <path id="boat-220-12" pathLength="1" d="M1616.00 730.00 L1614.00 730.00 L1613.00 730.00 L1613.00 734.00 L1614.00 734.00 L1616.00 730.00"/>
  </g>
  <g data-threshold="160" fill="none" stroke="#0f4d9a" stroke-width="1.08" stroke-opacity="0.58" stroke-linecap="butt" stroke-linejoin="round">
    <path id="boat-160-0" pathLength="1" d="M1623.00 596.00 L1620.00 596.00 L1619.00 596.00 L1614.00 600.00 L1614.00 601.00 L1614.00 610.00 L1614.00 611.00 L1613.00 613.00"/>
    <path id="boat-160-1" pathLength="1" d="M1615.00 703.00 L1614.00 702.00 L1613.00 702.00 L1608.00 702.00 L1607.00 702.00 L1603.00 702.00 L1602.00 702.00 L1597.00 702.00 L1596.00 702.00 L1594.00 700.00 L1595.00 699.00 L1596.00 693.00 L1596.00 692.00 L1598.00 686.00 L1598.00 685.00 L1599.00 679.00 L1599.00 678.00 L1600.00 673.00 L1601.00 672.00 L1602.00 665.00 L1602.00 664.00 L1604.00 658.00 L1604.00 657.00 L1605.00 652.00 L1605.00 651.00 L1606.00 646.00 L1606.00 645.00 L1608.00 639.00 L1608.00 638.00 L1609.00 632.00 L1609.00 631.00 L1610.00 625.00 L1610.00 624.00 L1611.00 618.00 L1612.00 617.00 L1613.00 613.00"/>
    <path id="boat-160-2" pathLength="1" d="M1636.00 706.00 L1633.00 700.00 L1633.00 699.00 L1632.00 693.00 L1632.00 692.00 L1630.00 686.00 L1630.00 685.00 L1629.00 680.00 L1629.00 679.00 L1627.00 673.00 L1627.00 672.00 L1626.00 666.00 L1626.00 665.00 L1624.00 659.00 L1624.00 658.00 L1623.00 652.00 L1623.00 651.00 L1622.00 645.00 L1621.00 644.00 L1620.00 639.00"/>
    <path id="boat-160-3" pathLength="1" d="M1615.00 703.00 L1615.00 700.00 L1615.00 699.00 L1615.00 693.00 L1615.00 692.00 L1615.00 686.00 L1615.00 685.00 L1615.00 679.00 L1615.00 678.00 L1614.00 673.00 L1614.00 672.00 L1615.00 666.00 L1615.00 665.00 L1615.00 659.00 L1615.00 658.00 L1615.00 652.00 L1615.00 651.00 L1615.00 645.00 L1615.00 644.00 L1620.00 639.00"/>
    <path id="boat-160-4" pathLength="1" d="M1599.00 710.00 L1597.00 709.00 L1596.00 709.00 L1596.00 713.00 L1597.00 713.00 L1599.00 710.00"/>
    <path id="boat-160-5" pathLength="1" d="M1621.00 716.00 L1614.00 717.00 L1613.00 717.00 L1605.00 717.00 L1604.00 717.00 L1601.00 717.00"/>
    <path id="boat-160-6" pathLength="1" d="M1594.00 722.00 L1596.00 721.00 L1597.00 721.00 L1599.00 719.00 L1600.00 718.00 L1601.00 717.00"/>
    <path id="boat-160-7" pathLength="1" d="M1636.00 706.00 L1631.00 703.00 L1630.00 703.00 L1622.00 702.00 L1621.00 702.00 L1615.00 703.00"/>
    <path id="boat-160-8" pathLength="1" d="M1619.00 725.00 L1616.00 723.00 L1616.00 722.00 L1616.00 719.00 L1616.00 718.00 L1621.00 716.00"/>
    <path id="boat-160-9" pathLength="1" d="M1636.00 706.00 L1632.00 709.00 L1633.00 710.00 L1631.00 712.00 L1630.00 713.00 L1627.00 716.00"/>
    <path id="boat-160-10" pathLength="1" d="M1634.00 722.00 L1632.00 721.00 L1631.00 721.00 L1629.00 719.00 L1628.00 718.00 L1627.00 716.00"/>
    <path id="boat-160-11" pathLength="1" d="M1619.00 725.00 L1614.00 725.00 L1613.00 725.00 L1607.00 724.00 L1606.00 724.00 L1604.00 725.00"/>
  </g>
</svg>
